<svg width="22" height="22" viewBox="0 0 22 22" fill="none" xmlns="http://www.w3.org/2000/svg">
<path d="M8.57353 13.1236C9.07605 13.1236 9.48342 13.5148 9.48342 13.9974V16.3275C9.48342 16.8101 9.07605 17.2013 8.57353 17.2013C8.07101 17.2013 7.66364 16.8101 7.66364 16.3275V13.9974C7.66364 13.5148 8.07101 13.1236 8.57353 13.1236Z" fill="#80D261"/>
<path d="M14.3362 13.9974C14.3362 13.5148 13.9288 13.1236 13.4263 13.1236C12.9238 13.1236 12.5164 13.5148 12.5164 13.9974V16.3275C12.5164 16.8101 12.9238 17.2013 13.4263 17.2013C13.9288 17.2013 14.3362 16.8101 14.3362 16.3275V13.9974Z" fill="#80D261"/>
<path fill-rule="evenodd" clip-rule="evenodd" d="M8.14833 1.61892C8.39959 1.20099 8.25048 0.666602 7.81529 0.425315C7.3801 0.184029 6.82361 0.327219 6.57236 0.745139L4.14598 4.78094C4.10963 4.8414 4.08166 4.9043 4.06173 4.96839H3.72079C1.87822 4.96839 0.384521 6.4028 0.384521 8.17224C0.384521 9.17315 0.862476 10.0669 1.61117 10.6544L2.42029 15.9957L2.96227 18.4343C3.287 19.8954 4.52905 21.0052 6.06995 21.2111C9.34083 21.6481 12.659 21.6481 15.9299 21.2111C17.4708 21.0052 18.7128 19.8954 19.0375 18.4343L19.5795 15.9957L20.3886 10.6544C21.1373 10.0669 21.6153 9.17315 21.6153 8.17224C21.6153 6.4028 20.1216 4.96839 18.279 4.96839H17.9381C17.9181 4.9043 17.8902 4.8414 17.8538 4.78094L15.4275 0.745139C15.1762 0.327219 14.6197 0.184029 14.1845 0.425315C13.7493 0.666602 13.6002 1.20099 13.8515 1.61892L15.8652 4.96839H6.13458L8.14833 1.61892ZM18.4409 11.3724C18.3873 11.3748 18.3333 11.3761 18.279 11.3761H3.72079C3.6665 11.3761 3.61252 11.3748 3.55887 11.3724L4.21249 15.6872L4.74197 18.0695C4.90694 18.8118 5.53793 19.3756 6.32074 19.4802C9.42523 19.895 12.5746 19.895 15.6791 19.4802C16.4619 19.3756 17.0929 18.8118 17.2578 18.0695L17.7873 15.6872L18.4409 11.3724ZM2.2043 8.17224C2.2043 7.36795 2.88325 6.71595 3.72079 6.71595H18.279C19.1166 6.71595 19.7955 7.36795 19.7955 8.17224C19.7955 8.97653 19.1166 9.62853 18.279 9.62853H3.72079C2.88325 9.62853 2.2043 8.97653 2.2043 8.17224Z" fill="#80D261"/>
</svg>
