<svg width="136" height="36" viewBox="0 0 136 36" fill="none" xmlns="http://www.w3.org/2000/svg">
<path d="M15.84 20.5157H27.39V21.3957C27.39 23.9557 27.14 27.3557 24.91 30.4257C23.48 32.3957 20.12 35.6357 14.32 35.6357C9.87 35.6357 6.72 33.9957 4.28 31.5657C1.34 28.6257 0 25.0957 0 21.1057C0 18.1257 0.8 14.1757 3.99 10.8557C7.35 7.36568 11.43 6.57568 14.58 6.57568C18.36 6.57568 21.01 7.75568 23.11 9.26568C24.37 10.1457 25.29 11.0757 26.18 12.2457L23.16 15.1457C21.35 12.5457 18.5 10.5257 14.59 10.5257C8.67 10.5257 4.3 15.0157 4.3 21.1557C4.3 27.1157 8.63 31.6957 14.47 31.6957C18.97 31.6957 22.16 28.5857 22.83 24.4657H15.86V20.5157H15.84Z" fill="#80D261"/>
<path d="M29 17.4156H33.12V19.0156C34.34 17.5456 35.77 16.9556 37.28 16.9556C38.33 16.9556 39.55 17.3356 40.6 18.0056L38.75 21.7456C37.83 21.1156 37.11 20.9056 36.44 20.9056C35.05 20.9056 34.3 21.5756 33.84 22.2956C33.17 23.3456 33.13 24.8156 33.13 25.9456V35.1056H29V17.4156Z" fill="#80D261"/>
<path d="M56.08 30.4758C55.53 31.5258 54.69 32.7058 53.77 33.4958C52.09 34.9658 49.78 35.6358 47.85 35.6358C43.44 35.6358 39.03 32.7358 39.03 26.3558C39.03 20.8058 42.39 16.9458 47.64 16.9458C50.79 16.9458 53.02 18.3758 54.28 20.1758C55.79 22.3558 55.92 25.2958 55.92 26.6058V27.2358H43.22C43.35 30.4658 45.82 31.9458 48.01 31.9458C49.19 31.9458 50.15 31.5258 50.82 30.9758C51.53 30.4258 52.21 29.5458 52.63 28.5358L56.08 30.4758ZM51.71 23.8758C51.25 21.9058 49.65 20.6458 47.64 20.6458C45.62 20.6458 44.07 21.9458 43.52 23.8758H51.71Z" fill="#80D261"/>
<path d="M73.4899 30.4758C72.9399 31.5258 72.0999 32.7058 71.1799 33.4958C69.4999 34.9658 67.1899 35.6358 65.2599 35.6358C60.8499 35.6358 56.4399 32.7358 56.4399 26.3558C56.4399 20.8058 59.7999 16.9458 65.0499 16.9458C68.1999 16.9458 70.4299 18.3758 71.6899 20.1758C73.1999 22.3558 73.3299 25.2958 73.3299 26.6058V27.2358H60.6399C60.7699 30.4658 63.2399 31.9458 65.4299 31.9458C66.6099 31.9458 67.5699 31.5258 68.2399 30.9758C68.9499 30.4258 69.6299 29.5458 70.0499 28.5358L73.4899 30.4758ZM69.1199 23.8758C68.6599 21.9058 67.0599 20.6458 65.0499 20.6458C63.0299 20.6458 61.4799 21.9458 60.9299 23.8758H69.1199Z" fill="#80D261"/>
<path d="M73.73 17.4156H77.85V19.0556C79.61 17.0856 81.63 16.9556 82.64 16.9556C85.92 16.9556 87.3 18.5956 87.85 19.3456C88.52 20.3156 88.94 21.5256 88.94 24.2656V35.1056H84.82V25.2756C84.82 20.7756 83.14 20.6556 81.59 20.6556C79.74 20.6556 77.85 20.9056 77.85 26.6256V35.1156H73.73V17.4156Z" fill="#80D261"/>
<path d="M114.49 17.746C114.49 20.576 112.34 22.636 109.55 22.636C106.76 22.636 104.61 20.576 104.61 17.746C104.61 14.896 106.76 12.876 109.55 12.876C112.34 12.876 114.49 14.896 114.49 17.746ZM112.3 17.776C112.3 15.666 110.92 14.816 109.56 14.816C108.2 14.816 106.82 15.676 106.82 17.776C106.82 19.556 107.87 20.716 109.56 20.716C111.24 20.716 112.3 19.546 112.3 17.776Z" fill="#629DD1"/>
<path d="M123.07 6.3656H125.22V22.3556H123.07V21.3856C122.13 22.4856 120.96 22.6356 120.31 22.6356C117.46 22.6356 115.83 20.2656 115.83 17.7256C115.83 14.7156 117.89 12.8756 120.33 12.8756C121.01 12.8756 122.19 13.0556 123.07 14.1956V6.3656V6.3656ZM118.02 17.7756C118.02 19.3756 119.03 20.7156 120.59 20.7156C121.95 20.7156 123.2 19.7256 123.2 17.7956C123.2 15.7756 121.95 14.8156 120.59 14.8156C119.03 14.8056 118.02 16.1256 118.02 17.7756Z" fill="#629DD1"/>
<path d="M135.94 19.9457C135.65 20.4957 135.22 21.1057 134.73 21.5257C133.85 22.2957 132.65 22.6457 131.64 22.6457C129.34 22.6457 127.03 21.1357 127.03 17.7957C127.03 14.8957 128.79 12.8857 131.53 12.8857C133.18 12.8857 134.34 13.6357 135 14.5757C135.79 15.7157 135.86 17.2557 135.86 17.9357V18.2657H129.23C129.3 19.9557 130.59 20.7257 131.73 20.7257C132.34 20.7257 132.85 20.5057 133.2 20.2257C133.57 19.9357 133.92 19.4757 134.14 18.9557L135.94 19.9457ZM133.66 16.4957C133.42 15.4657 132.58 14.8057 131.53 14.8057C130.48 14.8057 129.67 15.4857 129.38 16.4957H133.66Z" fill="#629DD1"/>
<path d="M84.8401 0.515625C84.9801 0.645625 85.0901 0.735625 85.1901 0.825625C87.1201 2.63562 88.6601 4.71562 89.6201 7.19562C90.2201 8.75562 90.5101 10.3556 90.3801 12.0256C90.2501 13.6756 89.7701 15.2156 88.9501 16.6456C88.5201 17.3956 88.0201 18.1056 87.5501 18.8456C91.5901 14.8056 95.6301 10.7656 99.7101 6.68563C99.7301 6.83563 99.7601 6.93562 99.7601 7.03562C99.8401 9.32562 99.5801 11.5656 98.8101 13.7356C97.9901 16.0356 96.6701 17.9656 94.6501 19.3756C93.2301 20.3656 91.6401 20.9656 89.9501 21.2956C88.3401 21.6056 86.7101 21.6556 85.0801 21.5856C84.8301 21.5756 84.8201 21.5556 84.8201 21.2856C84.8201 17.3556 84.8201 13.4256 84.8201 9.49562C84.8201 6.63562 84.8201 3.77562 84.8201 0.915625C84.8201 0.805625 84.8301 0.685625 84.8401 0.515625Z" fill="#80D261"/>
<path d="M103.15 11.1453C101.53 9.67531 100.01 9.52531 99.1801 9.52531C96.0001 9.52531 93.8501 11.8753 93.8501 15.0953C93.8501 18.1853 96.0901 20.5753 99.2001 20.5753C100.96 20.5753 102.32 19.6753 103.15 18.8853V21.5353C101.68 22.4153 100.14 22.6353 99.1401 22.6353C96.4901 22.6353 94.8201 21.4253 93.9601 20.6153C92.2501 19.0153 91.6101 17.1453 91.6101 15.0853C91.6101 12.3853 92.7301 10.5253 93.9601 9.35531C95.4701 7.92531 97.2301 7.44531 99.2501 7.44531C100.59 7.44531 101.88 7.68531 103.15 8.49531V11.1453V11.1453Z" fill="#629DD1"/>
</svg>
