<svg width="38" height="37" viewBox="0 0 38 37" fill="none" xmlns="http://www.w3.org/2000/svg">
<path d="M25.0459 15.6429C25.0459 13.9256 24.3327 12.2787 23.0632 11.0644C21.7937 9.85015 20.0719 9.16797 18.2766 9.16797C16.4813 9.16797 14.7595 9.85015 13.4901 11.0644C12.2206 12.2787 11.5074 13.9256 11.5074 15.6429C11.5074 21.0302 9.31646 23.6732 8.0596 24.7462C7.85905 24.9174 7.99307 25.3553 8.25677 25.3553H14.1278C14.2448 25.3553 14.3466 25.435 14.3815 25.5466C14.5973 26.2361 15.5267 28.5526 18.2766 28.5526C21.0266 28.5526 21.956 26.2361 22.1717 25.5466C22.2067 25.435 22.3085 25.3553 22.4254 25.3553H28.2965C28.5602 25.3553 28.6942 24.9174 28.4937 24.7462C27.2368 23.6732 25.0459 21.0302 25.0459 15.6429Z" stroke="#333333" stroke-width="2"/>
</svg>
